<?xml version="1.0" encoding="UTF-8" standalone="no"?>
<!-- Created with Inkscape (http://www.inkscape.org/) -->

<svg
   xmlns:dc="http://purl.org/dc/elements/1.1/"
   xmlns:cc="http://creativecommons.org/ns#"
   xmlns:rdf="http://www.w3.org/1999/02/22-rdf-syntax-ns#"
   xmlns:svg="http://www.w3.org/2000/svg"
   xmlns="http://www.w3.org/2000/svg"
   xmlns:sodipodi="http://sodipodi.sourceforge.net/DTD/sodipodi-0.dtd"
   xmlns:inkscape="http://www.inkscape.org/namespaces/inkscape"
   id="svg4155"
   version="1.1"
   inkscape:version="0.92.2 5c3e80d, 2017-08-06"
   xml:space="preserve"
   width="1052.3625"
   height="744.09998"
   viewBox="0 0 1052.3625 744.09998"
   sodipodi:docname="T-infinity-logo-modified.svg"><metadata
     id="metadata4161"><rdf:RDF><cc:Work
         rdf:about=""><dc:format>image/svg+xml</dc:format><dc:type
           rdf:resource="http://purl.org/dc/dcmitype/StillImage" /><dc:title></dc:title></cc:Work></rdf:RDF></metadata><defs
     id="defs4159"><clipPath
       clipPathUnits="userSpaceOnUse"
       id="clipPath4169"><path
         d="m 434.419,310.033 c 2.23,-2.256 4.449,-4.498 6.666,-6.74 l 0,0 c 11.493,11.815 28.356,10.234 37.808,0.775 l 0,0 c 9.722,-9.728 10.281,-25.03 1.591,-35.461 l 0,0 c -8.203,-9.846 -26.748,-14.138 -39.573,-0.8 l 0,0 c -2.189,-2.214 -4.379,-4.428 -6.574,-6.649 l 0,0 c 11.355,-13.101 34.279,-16.356 50.092,-2.267 l 0,0 c 15.561,13.865 15.9,38.249 0.8,52.523 l 0,0 c -7.2,6.806 -16.122,9.9 -24.808,9.9 l 0,0 c -9.964,0 -19.618,-4.071 -26.002,-11.281"
         id="path4171"
         inkscape:connector-curvature="0" /></clipPath><linearGradient
       x1="0"
       y1="0"
       x2="1"
       y2="0"
       gradientUnits="userSpaceOnUse"
       gradientTransform="matrix(191.76361,-23.770458,-23.770458,-191.76361,333.22644,301.28821)"
       spreadMethod="pad"
       id="linearGradient4177"><stop
         style="stop-opacity:1;stop-color:#41c0bf"
         offset="0"
         id="stop4179" /><stop
         style="stop-opacity:1;stop-color:#5bc1b0"
         offset="0.275862"
         id="stop4181" /><stop
         style="stop-opacity:1;stop-color:#89c97e"
         offset="0.527094"
         id="stop4183" /><stop
         style="stop-opacity:1;stop-color:#97cb70"
         offset="0.714286"
         id="stop4185" /><stop
         style="stop-opacity:1;stop-color:#9ece6b"
         offset="1"
         id="stop4187" /></linearGradient><clipPath
       clipPathUnits="userSpaceOnUse"
       id="clipPath4195"><path
         d="m 416.345,292.026 -6.462,-6.74 0.003,-0.004 c -0.003,-0.003 -0.003,-0.003 -0.006,-0.003 l 0,0 c -3.676,-3.573 -7.214,-7.014 -10.556,-10.254 l 0,0 c 2.232,-2.315 4.394,-4.564 6.812,-7.07 l 0,0 c 3.424,3.511 6.842,7.025 10.559,10.841 l 0,0 c 3.48,-3.638 6.892,-7.2 10.148,-10.608 l 0,0 4.622,-4.724 7.025,7.025 -4.866,4.864 c -3.359,3.327 -6.763,6.69 -10.34,10.231 l 0,0 c 3.577,3.521 7.087,6.984 10.365,10.217 l 0,0 c -2.329,2.379 -4.505,4.611 -6.881,7.038 l 0,0 c -3.346,-3.473 -6.743,-6.994 -10.423,-10.813"
         id="path4197"
         inkscape:connector-curvature="0" /></clipPath><linearGradient
       x1="0"
       y1="0"
       x2="1"
       y2="0"
       gradientUnits="userSpaceOnUse"
       gradientTransform="matrix(191.76361,-23.770458,-23.770458,-191.76361,332.46341,295.13245)"
       spreadMethod="pad"
       id="linearGradient4203"><stop
         style="stop-opacity:1;stop-color:#41c0bf"
         offset="0"
         id="stop4205" /><stop
         style="stop-opacity:1;stop-color:#5bc1b0"
         offset="0.275862"
         id="stop4207" /><stop
         style="stop-opacity:1;stop-color:#89c97e"
         offset="0.527094"
         id="stop4209" /><stop
         style="stop-opacity:1;stop-color:#97cb70"
         offset="0.714286"
         id="stop4211" /><stop
         style="stop-opacity:1;stop-color:#9ece6b"
         offset="1"
         id="stop4213" /></linearGradient><clipPath
       clipPathUnits="userSpaceOnUse"
       id="clipPath4221"><path
         d="m 347.168,310.794 c -14.631,-14.763 -13.872,-38.371 1.756,-52.146 l 0,0 c 15.36,-13.538 38.06,-10.869 49.85,2.52 l 0,0 c -2.19,2.239 -4.376,4.471 -6.562,6.703 l 0,0 c -13.267,-13.735 -31.607,-8.586 -39.155,0.206 l 0,0 c -8.808,10.261 -8.86,25.306 0.115,34.981 l 0,0 c 4.844,5.223 10.844,8.132 17.93,8.529 l 0,0 c 6.475,0.363 12.158,-1.406 17.147,-5.134 l 0,0 -0.01,-0.01 4.032,-3.573 c 3.36,-3.326 7.597,-7.981 11.174,-11.523 l 0,0 6.589,6.789 c -3.48,3.637 -7.673,8.053 -10.93,11.46 l 0,0 0,10e-4 c -1.236,1.362 -2.556,2.603 -3.945,3.726 l 0,0 -0.022,0.021 -10e-4,-0.002 c -6.52,5.266 -14.562,7.9 -22.598,7.9 l 0,0 c -9.237,10e-4 -18.466,-3.48 -25.37,-10.448"
         id="path4223"
         inkscape:connector-curvature="0" /></clipPath><linearGradient
       x1="0"
       y1="0"
       x2="1"
       y2="0"
       gradientUnits="userSpaceOnUse"
       gradientTransform="matrix(191.76361,-23.770458,-23.770458,-191.76361,331.89197,290.52255)"
       spreadMethod="pad"
       id="linearGradient4229"><stop
         style="stop-opacity:1;stop-color:#41c0bf"
         offset="0"
         id="stop4231" /><stop
         style="stop-opacity:1;stop-color:#5bc1b0"
         offset="0.275862"
         id="stop4233" /><stop
         style="stop-opacity:1;stop-color:#89c97e"
         offset="0.527094"
         id="stop4235" /><stop
         style="stop-opacity:1;stop-color:#97cb70"
         offset="0.714286"
         id="stop4237" /><stop
         style="stop-opacity:1;stop-color:#9ece6b"
         offset="1"
         id="stop4239" /></linearGradient><clipPath
       clipPathUnits="userSpaceOnUse"
       id="clipPath4247"><path
         d="m 262.722,219.302 0,-10.206 13.608,0 0,-40.823 10.205,0 0,40.823 13.608,0 0,10.206 -37.421,0 z"
         id="path4249"
         inkscape:connector-curvature="0" /></clipPath><linearGradient
       x1="0"
       y1="0"
       x2="1"
       y2="0"
       gradientUnits="userSpaceOnUse"
       gradientTransform="matrix(338.58563,-42.497372,-42.497372,-338.58563,264.89249,196.71738)"
       spreadMethod="pad"
       id="linearGradient4255"><stop
         style="stop-opacity:1;stop-color:#41c0bf"
         offset="0"
         id="stop4257" /><stop
         style="stop-opacity:1;stop-color:#5bc1b0"
         offset="0.275862"
         id="stop4259" /><stop
         style="stop-opacity:1;stop-color:#89c97e"
         offset="0.527094"
         id="stop4261" /><stop
         style="stop-opacity:1;stop-color:#97cb70"
         offset="0.714286"
         id="stop4263" /><stop
         style="stop-opacity:1;stop-color:#9ece6b"
         offset="1"
         id="stop4265" /></linearGradient><clipPath
       clipPathUnits="userSpaceOnUse"
       id="clipPath4273"><path
         d="m 301.059,192.019 -3.402,-10.206 34.019,0.068 0,10.205 -30.617,-0.067 z"
         id="path4275"
         inkscape:connector-curvature="0" /></clipPath><linearGradient
       x1="0"
       y1="0"
       x2="1"
       y2="0"
       gradientUnits="userSpaceOnUse"
       gradientTransform="matrix(338.58563,-42.497372,-42.497372,-338.58563,264.45746,193.25154)"
       spreadMethod="pad"
       id="linearGradient4281"><stop
         style="stop-opacity:1;stop-color:#41c0bf"
         offset="0"
         id="stop4283" /><stop
         style="stop-opacity:1;stop-color:#5bc1b0"
         offset="0.275862"
         id="stop4285" /><stop
         style="stop-opacity:1;stop-color:#89c97e"
         offset="0.527094"
         id="stop4287" /><stop
         style="stop-opacity:1;stop-color:#97cb70"
         offset="0.714286"
         id="stop4289" /><stop
         style="stop-opacity:1;stop-color:#9ece6b"
         offset="1"
         id="stop4291" /></linearGradient><clipPath
       clipPathUnits="userSpaceOnUse"
       id="clipPath4299"><path
         d="m 338.48,219.302 0,-10.206 6.804,0 3.402,10.206 -10.206,0 z m 0,-51.029 10.206,0 0,37.421 -10.206,0 0,-37.421 z"
         id="path4301"
         inkscape:connector-curvature="0" /></clipPath><linearGradient
       x1="0"
       y1="0"
       x2="1"
       y2="0"
       gradientUnits="userSpaceOnUse"
       gradientTransform="matrix(338.58563,-42.497372,-42.497372,-338.58563,265.75089,203.55647)"
       spreadMethod="pad"
       id="linearGradient4307"><stop
         style="stop-opacity:1;stop-color:#41c0bf"
         offset="0"
         id="stop4309" /><stop
         style="stop-opacity:1;stop-color:#5bc1b0"
         offset="0.275862"
         id="stop4311" /><stop
         style="stop-opacity:1;stop-color:#89c97e"
         offset="0.527094"
         id="stop4313" /><stop
         style="stop-opacity:1;stop-color:#97cb70"
         offset="0.714286"
         id="stop4315" /><stop
         style="stop-opacity:1;stop-color:#9ece6b"
         offset="1"
         id="stop4317" /></linearGradient><clipPath
       clipPathUnits="userSpaceOnUse"
       id="clipPath4325"><path
         d="m 362.293,205.694 c -4.536,0 -6.803,-2.268 -6.803,-6.804 l 0,0 0,-30.617 10.205,0 0,27.215 20.412,0 0.034,-27.215 10.205,0 0,30.617 c 0,4.536 -2.268,6.804 -6.803,6.804 l 0,0 -27.25,0 z"
         id="path4327"
         inkscape:connector-curvature="0" /></clipPath><linearGradient
       x1="0"
       y1="0"
       x2="1"
       y2="0"
       gradientUnits="userSpaceOnUse"
       gradientTransform="matrix(338.58563,-42.497372,-42.497372,-338.58563,265.36478,200.48026)"
       spreadMethod="pad"
       id="linearGradient4333"><stop
         style="stop-opacity:1;stop-color:#41c0bf"
         offset="0"
         id="stop4335" /><stop
         style="stop-opacity:1;stop-color:#5bc1b0"
         offset="0.275862"
         id="stop4337" /><stop
         style="stop-opacity:1;stop-color:#89c97e"
         offset="0.527094"
         id="stop4339" /><stop
         style="stop-opacity:1;stop-color:#97cb70"
         offset="0.714286"
         id="stop4341" /><stop
         style="stop-opacity:1;stop-color:#9ece6b"
         offset="1"
         id="stop4343" /></linearGradient><clipPath
       clipPathUnits="userSpaceOnUse"
       id="clipPath4351"><path
         d="m 409.92,219.302 c -4.536,0 -6.804,-2.268 -6.804,-6.804 l 0,0 0,-44.225 10.206,0 0,27.215 3.402,0 0,10.206 -3.402,0 0,3.402 3.402,0 3.402,10.206 -10.206,0 z"
         id="path4353"
         inkscape:connector-curvature="0" /></clipPath><linearGradient
       x1="0"
       y1="0"
       x2="1"
       y2="0"
       gradientUnits="userSpaceOnUse"
       gradientTransform="matrix(338.58563,-42.497372,-42.497372,-338.58563,266.80612,211.96382)"
       spreadMethod="pad"
       id="linearGradient4359"><stop
         style="stop-opacity:1;stop-color:#41c0bf"
         offset="0"
         id="stop4361" /><stop
         style="stop-opacity:1;stop-color:#5bc1b0"
         offset="0.275862"
         id="stop4363" /><stop
         style="stop-opacity:1;stop-color:#89c97e"
         offset="0.527094"
         id="stop4365" /><stop
         style="stop-opacity:1;stop-color:#97cb70"
         offset="0.714286"
         id="stop4367" /><stop
         style="stop-opacity:1;stop-color:#9ece6b"
         offset="1"
         id="stop4369" /></linearGradient><clipPath
       clipPathUnits="userSpaceOnUse"
       id="clipPath4377"><path
         d="m 423.528,219.302 0,-10.206 6.804,0 3.402,10.206 -10.206,0 z m 0,-51.029 10.206,0 0,37.421 -10.206,0 0,-37.421 z"
         id="path4379"
         inkscape:connector-curvature="0" /></clipPath><linearGradient
       x1="0"
       y1="0"
       x2="1"
       y2="0"
       gradientUnits="userSpaceOnUse"
       gradientTransform="matrix(338.58563,-42.497372,-42.497372,-338.58563,267.06995,214.06566)"
       spreadMethod="pad"
       id="linearGradient4385"><stop
         style="stop-opacity:1;stop-color:#41c0bf"
         offset="0"
         id="stop4387" /><stop
         style="stop-opacity:1;stop-color:#5bc1b0"
         offset="0.275862"
         id="stop4389" /><stop
         style="stop-opacity:1;stop-color:#89c97e"
         offset="0.527094"
         id="stop4391" /><stop
         style="stop-opacity:1;stop-color:#97cb70"
         offset="0.714286"
         id="stop4393" /><stop
         style="stop-opacity:1;stop-color:#9ece6b"
         offset="1"
         id="stop4395" /></linearGradient><clipPath
       clipPathUnits="userSpaceOnUse"
       id="clipPath4403"><path
         d="m 447.341,205.694 c -4.536,0 -6.804,-2.268 -6.804,-6.804 l 0,0 0,-30.617 10.206,0 0,27.215 20.412,0 0.034,-27.215 10.206,0 0,30.617 c 0,4.536 -2.268,6.804 -6.804,6.804 l 0,0 -27.25,0 z"
         id="path4405"
         inkscape:connector-curvature="0" /></clipPath><linearGradient
       x1="0"
       y1="0"
       x2="1"
       y2="0"
       gradientUnits="userSpaceOnUse"
       gradientTransform="matrix(338.58563,-42.497372,-42.497372,-338.58563,266.68384,210.98946)"
       spreadMethod="pad"
       id="linearGradient4411"><stop
         style="stop-opacity:1;stop-color:#41c0bf"
         offset="0"
         id="stop4413" /><stop
         style="stop-opacity:1;stop-color:#5bc1b0"
         offset="0.275862"
         id="stop4415" /><stop
         style="stop-opacity:1;stop-color:#89c97e"
         offset="0.527094"
         id="stop4417" /><stop
         style="stop-opacity:1;stop-color:#97cb70"
         offset="0.714286"
         id="stop4419" /><stop
         style="stop-opacity:1;stop-color:#9ece6b"
         offset="1"
         id="stop4421" /></linearGradient><clipPath
       clipPathUnits="userSpaceOnUse"
       id="clipPath4429"><path
         d="m 488.164,219.302 0,-10.206 6.805,0 3.401,10.206 -10.206,0 z m 0,-51.029 10.206,0 0,37.421 -10.206,0 0,-37.421 z"
         id="path4431"
         inkscape:connector-curvature="0" /></clipPath><linearGradient
       x1="0"
       y1="0"
       x2="1"
       y2="0"
       gradientUnits="userSpaceOnUse"
       gradientTransform="matrix(338.58563,-42.497372,-42.497372,-338.58563,268.07242,222.05264)"
       spreadMethod="pad"
       id="linearGradient4437"><stop
         style="stop-opacity:1;stop-color:#41c0bf"
         offset="0"
         id="stop4439" /><stop
         style="stop-opacity:1;stop-color:#5bc1b0"
         offset="0.275862"
         id="stop4441" /><stop
         style="stop-opacity:1;stop-color:#89c97e"
         offset="0.527094"
         id="stop4443" /><stop
         style="stop-opacity:1;stop-color:#97cb70"
         offset="0.714286"
         id="stop4445" /><stop
         style="stop-opacity:1;stop-color:#9ece6b"
         offset="1"
         id="stop4447" /></linearGradient><clipPath
       clipPathUnits="userSpaceOnUse"
       id="clipPath4455"><path
         d="m 505.174,212.498 0,-37.421 c 0,-4.537 2.268,-6.804 6.804,-6.804 l 0,0 10.206,0 0,10.206 -6.804,0 0,17.043 3.402,0 3.402,10.172 -6.804,0 0,6.804 -10.206,0 z"
         id="path4457"
         inkscape:connector-curvature="0" /></clipPath><linearGradient
       x1="0"
       y1="0"
       x2="1"
       y2="0"
       gradientUnits="userSpaceOnUse"
       gradientTransform="matrix(338.58563,-42.497372,-42.497372,-338.58563,267.96274,221.1788)"
       spreadMethod="pad"
       id="linearGradient4463"><stop
         style="stop-opacity:1;stop-color:#41c0bf"
         offset="0"
         id="stop4465" /><stop
         style="stop-opacity:1;stop-color:#5bc1b0"
         offset="0.275862"
         id="stop4467" /><stop
         style="stop-opacity:1;stop-color:#89c97e"
         offset="0.527094"
         id="stop4469" /><stop
         style="stop-opacity:1;stop-color:#97cb70"
         offset="0.714286"
         id="stop4471" /><stop
         style="stop-opacity:1;stop-color:#9ece6b"
         offset="1"
         id="stop4473" /></linearGradient><clipPath
       clipPathUnits="userSpaceOnUse"
       id="clipPath4481"><path
         d="m 559.605,205.694 0,-27.215 -20.411,0 0,27.215 -10.206,0 0,-30.617 c 0,-4.537 2.268,-6.804 6.804,-6.804 l 0,0 23.813,0 0,-3.402 -13.607,0 -3.402,-10.206 20.411,0 c 4.536,0 6.804,2.269 6.804,6.804 l 0,0 0.034,44.225 -10.24,0 z"
         id="path4483"
         inkscape:connector-curvature="0" /></clipPath><linearGradient
       x1="0"
       y1="0"
       x2="1"
       y2="0"
       gradientUnits="userSpaceOnUse"
       gradientTransform="matrix(338.58563,-42.497372,-42.497372,-338.58563,267.36731,216.43492)"
       spreadMethod="pad"
       id="linearGradient4489"><stop
         style="stop-opacity:1;stop-color:#41c0bf"
         offset="0"
         id="stop4491" /><stop
         style="stop-opacity:1;stop-color:#5bc1b0"
         offset="0.275862"
         id="stop4493" /><stop
         style="stop-opacity:1;stop-color:#89c97e"
         offset="0.527094"
         id="stop4495" /><stop
         style="stop-opacity:1;stop-color:#97cb70"
         offset="0.714286"
         id="stop4497" /><stop
         style="stop-opacity:1;stop-color:#9ece6b"
         offset="1"
         id="stop4499" /></linearGradient></defs><sodipodi:namedview
     pagecolor="#ffffff"
     bordercolor="#666666"
     borderopacity="1"
     objecttolerance="10"
     gridtolerance="10"
     guidetolerance="10"
     inkscape:pageopacity="0"
     inkscape:pageshadow="2"
     inkscape:window-width="1920"
     inkscape:window-height="1035"
     id="namedview4157"
     showgrid="false"
     inkscape:zoom="2.5428499"
     inkscape:cx="582.64104"
     inkscape:cy="306.6129"
     inkscape:window-x="0"
     inkscape:window-y="1"
     inkscape:window-maximized="1"
     inkscape:current-layer="g4191" /><g
     id="g4163"
     inkscape:groupmode="layer"
     inkscape:label="T-infinity-logo"
     transform="matrix(1.25,0,0,-1.25,0,744.1)"><g
       id="g4165"><g
         id="g4167"
         clip-path="url(#clipPath4169)"><g
           id="g4173"><g
             id="g4175"><path
               d="m 434.419,310.033 c 2.23,-2.256 4.449,-4.498 6.666,-6.74 l 0,0 c 11.493,11.815 28.356,10.234 37.808,0.775 l 0,0 c 9.722,-9.728 10.281,-25.03 1.591,-35.461 l 0,0 c -8.203,-9.846 -26.748,-14.138 -39.573,-0.8 l 0,0 c -2.189,-2.214 -4.379,-4.428 -6.574,-6.649 l 0,0 c 11.355,-13.101 34.279,-16.356 50.092,-2.267 l 0,0 c 15.561,13.865 15.9,38.249 0.8,52.523 l 0,0 c -7.2,6.806 -16.122,9.9 -24.808,9.9 l 0,0 c -9.964,0 -19.618,-4.071 -26.002,-11.281"
               style="fill:url(#linearGradient4177);stroke:none"
               id="path4189"
               inkscape:connector-curvature="0" /></g></g></g></g><g
       id="g4191"><g
         id="g4193"
         clip-path="url(#clipPath4195)"><g
           id="g4199"><g
             id="g4201"><path
               d="m 416.345,292.026 -6.462,-6.74 0.003,-0.004 c -0.003,-0.003 -0.003,-0.003 -0.006,-0.003 l 0,0 c -3.676,-3.573 -7.214,-7.014 -10.556,-10.254 l 0,0 c 2.232,-2.315 4.394,-4.564 6.812,-7.07 l 0,0 c 3.424,3.511 6.842,7.025 10.559,10.841 l 0,0 c 3.48,-3.638 6.892,-7.2 10.148,-10.608 l 0,0 4.622,-4.724 7.025,7.025 -4.866,4.864 c -3.359,3.327 -6.763,6.69 -10.34,10.231 l 0,0 c 3.577,3.521 7.087,6.984 10.365,10.217 l 0,0 c -2.329,2.379 -4.505,4.611 -6.881,7.038 l 0,0 c -3.346,-3.473 -6.743,-6.994 -10.423,-10.813"
               style="fill:url(#linearGradient4203);stroke:none"
               id="path4215"
               inkscape:connector-curvature="0" /></g></g></g><rect
         style="opacity:1;fill:#ffffff;fill-opacity:1;stroke:none;stroke-width:1.60000002;stroke-miterlimit:4;stroke-dasharray:none;stroke-opacity:1"
         id="rect4534"
         width="28.195724"
         height="6.1698656"
         x="469.0401"
         y="105.51474"
         transform="matrix(0.72119028,0.69273702,0.81001027,-0.5864157,0,0)" /></g><g
       id="g4217"><g
         id="g4219"
         clip-path="url(#clipPath4221)"><g
           id="g4225"><g
             id="g4227"><path
               d="m 347.168,310.794 c -14.631,-14.763 -13.872,-38.371 1.756,-52.146 l 0,0 c 15.36,-13.538 38.06,-10.869 49.85,2.52 l 0,0 c -2.19,2.239 -4.376,4.471 -6.562,6.703 l 0,0 c -13.267,-13.735 -31.607,-8.586 -39.155,0.206 l 0,0 c -8.808,10.261 -8.86,25.306 0.115,34.981 l 0,0 c 4.844,5.223 10.844,8.132 17.93,8.529 l 0,0 c 6.475,0.363 12.158,-1.406 17.147,-5.134 l 0,0 -0.01,-0.01 4.032,-3.573 c 3.36,-3.326 7.597,-7.981 11.174,-11.523 l 0,0 6.589,6.789 c -3.48,3.637 -7.673,8.053 -10.93,11.46 l 0,0 0,10e-4 c -1.236,1.362 -2.556,2.603 -3.945,3.726 l 0,0 -0.022,0.021 -10e-4,-0.002 c -6.52,5.266 -14.562,7.9 -22.598,7.9 l 0,0 c -9.237,10e-4 -18.466,-3.48 -25.37,-10.448"
               style="fill:url(#linearGradient4229);stroke:none"
               id="path4241"
               inkscape:connector-curvature="0" /></g></g></g></g><g
       id="g4243"><g
         id="g4245"
         clip-path="url(#clipPath4247)"><g
           id="g4251"><g
             id="g4253"><path
               d="m 262.722,219.302 0,-10.206 13.608,0 0,-40.823 10.205,0 0,40.823 13.608,0 0,10.206 -37.421,0 z"
               style="fill:url(#linearGradient4255);stroke:none"
               id="path4267"
               inkscape:connector-curvature="0" /></g></g></g></g><g
       id="g4269"><g
         id="g4271"
         clip-path="url(#clipPath4273)"><g
           id="g4277"><g
             id="g4279"><path
               d="m 301.059,192.019 -3.402,-10.206 34.019,0.068 0,10.205 -30.617,-0.067 z"
               style="fill:url(#linearGradient4281);stroke:none"
               id="path4293"
               inkscape:connector-curvature="0" /></g></g></g></g><g
       id="g4295"><g
         id="g4297"
         clip-path="url(#clipPath4299)"><g
           id="g4303"><g
             id="g4305"><path
               d="m 338.48,219.302 0,-10.206 6.804,0 3.402,10.206 -10.206,0 z m 0,-51.029 10.206,0 0,37.421 -10.206,0 0,-37.421 z"
               style="fill:url(#linearGradient4307);stroke:none"
               id="path4319"
               inkscape:connector-curvature="0" /></g></g></g></g><g
       id="g4321"><g
         id="g4323"
         clip-path="url(#clipPath4325)"><g
           id="g4329"><g
             id="g4331"><path
               d="m 362.293,205.694 c -4.536,0 -6.803,-2.268 -6.803,-6.804 l 0,0 0,-30.617 10.205,0 0,27.215 20.412,0 0.034,-27.215 10.205,0 0,30.617 c 0,4.536 -2.268,6.804 -6.803,6.804 l 0,0 -27.25,0 z"
               style="fill:url(#linearGradient4333);stroke:none"
               id="path4345"
               inkscape:connector-curvature="0" /></g></g></g></g><g
       id="g4347"><g
         id="g4349"
         clip-path="url(#clipPath4351)"><g
           id="g4355"><g
             id="g4357"><path
               d="m 409.92,219.302 c -4.536,0 -6.804,-2.268 -6.804,-6.804 l 0,0 0,-44.225 10.206,0 0,27.215 3.402,0 0,10.206 -3.402,0 0,3.402 3.402,0 3.402,10.206 -10.206,0 z"
               style="fill:url(#linearGradient4359);stroke:none"
               id="path4371"
               inkscape:connector-curvature="0" /></g></g></g></g><g
       id="g4373"><g
         id="g4375"
         clip-path="url(#clipPath4377)"><g
           id="g4381"><g
             id="g4383"><path
               d="m 423.528,219.302 0,-10.206 6.804,0 3.402,10.206 -10.206,0 z m 0,-51.029 10.206,0 0,37.421 -10.206,0 0,-37.421 z"
               style="fill:url(#linearGradient4385);stroke:none"
               id="path4397"
               inkscape:connector-curvature="0" /></g></g></g></g><g
       id="g4399"><g
         id="g4401"
         clip-path="url(#clipPath4403)"><g
           id="g4407"><g
             id="g4409"><path
               d="m 447.341,205.694 c -4.536,0 -6.804,-2.268 -6.804,-6.804 l 0,0 0,-30.617 10.206,0 0,27.215 20.412,0 0.034,-27.215 10.206,0 0,30.617 c 0,4.536 -2.268,6.804 -6.804,6.804 l 0,0 -27.25,0 z"
               style="fill:url(#linearGradient4411);stroke:none"
               id="path4423"
               inkscape:connector-curvature="0" /></g></g></g></g><g
       id="g4425"><g
         id="g4427"
         clip-path="url(#clipPath4429)"><g
           id="g4433"><g
             id="g4435"><path
               d="m 488.164,219.302 0,-10.206 6.805,0 3.401,10.206 -10.206,0 z m 0,-51.029 10.206,0 0,37.421 -10.206,0 0,-37.421 z"
               style="fill:url(#linearGradient4437);stroke:none"
               id="path4449"
               inkscape:connector-curvature="0" /></g></g></g></g><g
       id="g4451"><g
         id="g4453"
         clip-path="url(#clipPath4455)"><g
           id="g4459"><g
             id="g4461"><path
               d="m 505.174,212.498 0,-37.421 c 0,-4.537 2.268,-6.804 6.804,-6.804 l 0,0 10.206,0 0,10.206 -6.804,0 0,17.043 3.402,0 3.402,10.172 -6.804,0 0,6.804 -10.206,0 z"
               style="fill:url(#linearGradient4463);stroke:none"
               id="path4475"
               inkscape:connector-curvature="0" /></g></g></g></g><g
       id="g4477"><g
         id="g4479"
         clip-path="url(#clipPath4481)"><g
           id="g4485"><g
             id="g4487"><path
               d="m 559.605,205.694 0,-27.215 -20.411,0 0,27.215 -10.206,0 0,-30.617 c 0,-4.537 2.268,-6.804 6.804,-6.804 l 0,0 23.813,0 0,-3.402 -13.607,0 -3.402,-10.206 20.411,0 c 4.536,0 6.804,2.269 6.804,6.804 l 0,0 0.034,44.225 -10.24,0 z"
               style="fill:url(#linearGradient4489);stroke:none"
               id="path4501"
               inkscape:connector-curvature="0" /></g></g></g></g></g></svg>