<?xml version="1.0" encoding="UTF-8" standalone="no"?>
<!-- Created with Inkscape (http://www.inkscape.org/) -->

<svg
   xmlns:dc="http://purl.org/dc/elements/1.1/"
   xmlns:cc="http://creativecommons.org/ns#"
   xmlns:rdf="http://www.w3.org/1999/02/22-rdf-syntax-ns#"
   xmlns:svg="http://www.w3.org/2000/svg"
   xmlns="http://www.w3.org/2000/svg"
   xmlns:sodipodi="http://sodipodi.sourceforge.net/DTD/sodipodi-0.dtd"
   xmlns:inkscape="http://www.inkscape.org/namespaces/inkscape"
   id="svg4155"
   version="1.1"
   inkscape:version="0.92.2 5c3e80d, 2017-08-06"
   xml:space="preserve"
   width="199.56445"
   height="89.495956"
   viewBox="0 0 199.56444 89.495957"
   sodipodi:docname="T-infinity-logo-only.svg"><metadata
     id="metadata4161"><rdf:RDF><cc:Work
         rdf:about=""><dc:format>image/svg+xml</dc:format><dc:type
           rdf:resource="http://purl.org/dc/dcmitype/StillImage" /><dc:title></dc:title></cc:Work></rdf:RDF></metadata><defs
     id="defs4159"><clipPath
       clipPathUnits="userSpaceOnUse"
       id="clipPath4169"><path
         d="m 434.419,310.033 c 2.23,-2.256 4.449,-4.498 6.666,-6.74 v 0 c 11.493,11.815 28.356,10.234 37.808,0.775 v 0 c 9.722,-9.728 10.281,-25.03 1.591,-35.461 v 0 c -8.203,-9.846 -26.748,-14.138 -39.573,-0.8 v 0 c -2.189,-2.214 -4.379,-4.428 -6.574,-6.649 v 0 c 11.355,-13.101 34.279,-16.356 50.092,-2.267 v 0 c 15.561,13.865 15.9,38.249 0.8,52.523 v 0 c -7.2,6.806 -16.122,9.9 -24.808,9.9 v 0 c -9.964,0 -19.618,-4.071 -26.002,-11.281"
         id="path4171"
         inkscape:connector-curvature="0" /></clipPath><linearGradient
       x1="0"
       y1="0"
       x2="1"
       y2="0"
       gradientUnits="userSpaceOnUse"
       gradientTransform="matrix(191.76361,-23.770458,-23.770458,-191.76361,333.22644,301.28821)"
       spreadMethod="pad"
       id="linearGradient4177"><stop
         style="stop-opacity:1;stop-color:#41c0bf"
         offset="0"
         id="stop4179" /><stop
         style="stop-opacity:1;stop-color:#5bc1b0"
         offset="0.275862"
         id="stop4181" /><stop
         style="stop-opacity:1;stop-color:#89c97e"
         offset="0.527094"
         id="stop4183" /><stop
         style="stop-opacity:1;stop-color:#97cb70"
         offset="0.714286"
         id="stop4185" /><stop
         style="stop-opacity:1;stop-color:#9ece6b"
         offset="1"
         id="stop4187" /></linearGradient><clipPath
       clipPathUnits="userSpaceOnUse"
       id="clipPath4195"><path
         d="m 416.345,292.026 -6.462,-6.74 0.003,-0.004 c -0.003,-0.003 -0.003,-0.003 -0.006,-0.003 v 0 c -3.676,-3.573 -7.214,-7.014 -10.556,-10.254 v 0 c 2.232,-2.315 4.394,-4.564 6.812,-7.07 v 0 c 3.424,3.511 6.842,7.025 10.559,10.841 v 0 c 3.48,-3.638 6.892,-7.2 10.148,-10.608 v 0 l 4.622,-4.724 7.025,7.025 -4.866,4.864 c -3.359,3.327 -6.763,6.69 -10.34,10.231 v 0 c 3.577,3.521 7.087,6.984 10.365,10.217 v 0 c -2.329,2.379 -4.505,4.611 -6.881,7.038 v 0 c -3.346,-3.473 -6.743,-6.994 -10.423,-10.813"
         id="path4197"
         inkscape:connector-curvature="0" /></clipPath><linearGradient
       x1="0"
       y1="0"
       x2="1"
       y2="0"
       gradientUnits="userSpaceOnUse"
       gradientTransform="matrix(191.76361,-23.770458,-23.770458,-191.76361,332.46341,295.13245)"
       spreadMethod="pad"
       id="linearGradient4203"><stop
         style="stop-opacity:1;stop-color:#41c0bf"
         offset="0"
         id="stop4205" /><stop
         style="stop-opacity:1;stop-color:#5bc1b0"
         offset="0.275862"
         id="stop4207" /><stop
         style="stop-opacity:1;stop-color:#89c97e"
         offset="0.527094"
         id="stop4209" /><stop
         style="stop-opacity:1;stop-color:#97cb70"
         offset="0.714286"
         id="stop4211" /><stop
         style="stop-opacity:1;stop-color:#9ece6b"
         offset="1"
         id="stop4213" /></linearGradient><clipPath
       clipPathUnits="userSpaceOnUse"
       id="clipPath4221"><path
         d="m 347.168,310.794 c -14.631,-14.763 -13.872,-38.371 1.756,-52.146 v 0 c 15.36,-13.538 38.06,-10.869 49.85,2.52 v 0 c -2.19,2.239 -4.376,4.471 -6.562,6.703 v 0 c -13.267,-13.735 -31.607,-8.586 -39.155,0.206 v 0 c -8.808,10.261 -8.86,25.306 0.115,34.981 v 0 c 4.844,5.223 10.844,8.132 17.93,8.529 v 0 c 6.475,0.363 12.158,-1.406 17.147,-5.134 v 0 l -0.01,-0.01 4.032,-3.573 c 3.36,-3.326 7.597,-7.981 11.174,-11.523 v 0 l 6.589,6.789 c -3.48,3.637 -7.673,8.053 -10.93,11.46 v 0 10e-4 c -1.236,1.362 -2.556,2.603 -3.945,3.726 v 0 l -0.022,0.021 -10e-4,-0.002 c -6.52,5.266 -14.562,7.9 -22.598,7.9 v 0 c -9.237,10e-4 -18.466,-3.48 -25.37,-10.448"
         id="path4223"
         inkscape:connector-curvature="0" /></clipPath><linearGradient
       x1="0"
       y1="0"
       x2="1"
       y2="0"
       gradientUnits="userSpaceOnUse"
       gradientTransform="matrix(191.76361,-23.770458,-23.770458,-191.76361,331.89197,290.52255)"
       spreadMethod="pad"
       id="linearGradient4229"><stop
         style="stop-opacity:1;stop-color:#41c0bf"
         offset="0"
         id="stop4231" /><stop
         style="stop-opacity:1;stop-color:#5bc1b0"
         offset="0.275862"
         id="stop4233" /><stop
         style="stop-opacity:1;stop-color:#89c97e"
         offset="0.527094"
         id="stop4235" /><stop
         style="stop-opacity:1;stop-color:#97cb70"
         offset="0.714286"
         id="stop4237" /><stop
         style="stop-opacity:1;stop-color:#9ece6b"
         offset="1"
         id="stop4239" /></linearGradient><clipPath
       clipPathUnits="userSpaceOnUse"
       id="clipPath4247"><path
         d="m 262.722,219.302 v -10.206 h 13.608 v -40.823 h 10.205 v 40.823 h 13.608 v 10.206 z"
         id="path4249"
         inkscape:connector-curvature="0" /></clipPath><linearGradient
       x1="0"
       y1="0"
       x2="1"
       y2="0"
       gradientUnits="userSpaceOnUse"
       gradientTransform="matrix(338.58563,-42.497372,-42.497372,-338.58563,264.89249,196.71738)"
       spreadMethod="pad"
       id="linearGradient4255"><stop
         style="stop-opacity:1;stop-color:#41c0bf"
         offset="0"
         id="stop4257" /><stop
         style="stop-opacity:1;stop-color:#5bc1b0"
         offset="0.275862"
         id="stop4259" /><stop
         style="stop-opacity:1;stop-color:#89c97e"
         offset="0.527094"
         id="stop4261" /><stop
         style="stop-opacity:1;stop-color:#97cb70"
         offset="0.714286"
         id="stop4263" /><stop
         style="stop-opacity:1;stop-color:#9ece6b"
         offset="1"
         id="stop4265" /></linearGradient><clipPath
       clipPathUnits="userSpaceOnUse"
       id="clipPath4273"><path
         d="m 301.059,192.019 -3.402,-10.206 34.019,0.068 v 10.205 z"
         id="path4275"
         inkscape:connector-curvature="0" /></clipPath><linearGradient
       x1="0"
       y1="0"
       x2="1"
       y2="0"
       gradientUnits="userSpaceOnUse"
       gradientTransform="matrix(338.58563,-42.497372,-42.497372,-338.58563,264.45746,193.25154)"
       spreadMethod="pad"
       id="linearGradient4281"><stop
         style="stop-opacity:1;stop-color:#41c0bf"
         offset="0"
         id="stop4283" /><stop
         style="stop-opacity:1;stop-color:#5bc1b0"
         offset="0.275862"
         id="stop4285" /><stop
         style="stop-opacity:1;stop-color:#89c97e"
         offset="0.527094"
         id="stop4287" /><stop
         style="stop-opacity:1;stop-color:#97cb70"
         offset="0.714286"
         id="stop4289" /><stop
         style="stop-opacity:1;stop-color:#9ece6b"
         offset="1"
         id="stop4291" /></linearGradient><clipPath
       clipPathUnits="userSpaceOnUse"
       id="clipPath4299"><path
         d="m 338.48,219.302 v -10.206 h 6.804 l 3.402,10.206 z m 0,-51.029 h 10.206 v 37.421 H 338.48 Z"
         id="path4301"
         inkscape:connector-curvature="0" /></clipPath><linearGradient
       x1="0"
       y1="0"
       x2="1"
       y2="0"
       gradientUnits="userSpaceOnUse"
       gradientTransform="matrix(338.58563,-42.497372,-42.497372,-338.58563,265.75089,203.55647)"
       spreadMethod="pad"
       id="linearGradient4307"><stop
         style="stop-opacity:1;stop-color:#41c0bf"
         offset="0"
         id="stop4309" /><stop
         style="stop-opacity:1;stop-color:#5bc1b0"
         offset="0.275862"
         id="stop4311" /><stop
         style="stop-opacity:1;stop-color:#89c97e"
         offset="0.527094"
         id="stop4313" /><stop
         style="stop-opacity:1;stop-color:#97cb70"
         offset="0.714286"
         id="stop4315" /><stop
         style="stop-opacity:1;stop-color:#9ece6b"
         offset="1"
         id="stop4317" /></linearGradient><clipPath
       clipPathUnits="userSpaceOnUse"
       id="clipPath4325"><path
         d="m 362.293,205.694 c -4.536,0 -6.803,-2.268 -6.803,-6.804 v 0 -30.617 h 10.205 v 27.215 h 20.412 l 0.034,-27.215 h 10.205 v 30.617 c 0,4.536 -2.268,6.804 -6.803,6.804 v 0 z"
         id="path4327"
         inkscape:connector-curvature="0" /></clipPath><linearGradient
       x1="0"
       y1="0"
       x2="1"
       y2="0"
       gradientUnits="userSpaceOnUse"
       gradientTransform="matrix(338.58563,-42.497372,-42.497372,-338.58563,265.36478,200.48026)"
       spreadMethod="pad"
       id="linearGradient4333"><stop
         style="stop-opacity:1;stop-color:#41c0bf"
         offset="0"
         id="stop4335" /><stop
         style="stop-opacity:1;stop-color:#5bc1b0"
         offset="0.275862"
         id="stop4337" /><stop
         style="stop-opacity:1;stop-color:#89c97e"
         offset="0.527094"
         id="stop4339" /><stop
         style="stop-opacity:1;stop-color:#97cb70"
         offset="0.714286"
         id="stop4341" /><stop
         style="stop-opacity:1;stop-color:#9ece6b"
         offset="1"
         id="stop4343" /></linearGradient><clipPath
       clipPathUnits="userSpaceOnUse"
       id="clipPath4351"><path
         d="m 409.92,219.302 c -4.536,0 -6.804,-2.268 -6.804,-6.804 v 0 -44.225 h 10.206 v 27.215 h 3.402 v 10.206 h -3.402 v 3.402 h 3.402 l 3.402,10.206 z"
         id="path4353"
         inkscape:connector-curvature="0" /></clipPath><linearGradient
       x1="0"
       y1="0"
       x2="1"
       y2="0"
       gradientUnits="userSpaceOnUse"
       gradientTransform="matrix(338.58563,-42.497372,-42.497372,-338.58563,266.80612,211.96382)"
       spreadMethod="pad"
       id="linearGradient4359"><stop
         style="stop-opacity:1;stop-color:#41c0bf"
         offset="0"
         id="stop4361" /><stop
         style="stop-opacity:1;stop-color:#5bc1b0"
         offset="0.275862"
         id="stop4363" /><stop
         style="stop-opacity:1;stop-color:#89c97e"
         offset="0.527094"
         id="stop4365" /><stop
         style="stop-opacity:1;stop-color:#97cb70"
         offset="0.714286"
         id="stop4367" /><stop
         style="stop-opacity:1;stop-color:#9ece6b"
         offset="1"
         id="stop4369" /></linearGradient><clipPath
       clipPathUnits="userSpaceOnUse"
       id="clipPath4377"><path
         d="m 423.528,219.302 v -10.206 h 6.804 l 3.402,10.206 z m 0,-51.029 h 10.206 v 37.421 h -10.206 z"
         id="path4379"
         inkscape:connector-curvature="0" /></clipPath><linearGradient
       x1="0"
       y1="0"
       x2="1"
       y2="0"
       gradientUnits="userSpaceOnUse"
       gradientTransform="matrix(338.58563,-42.497372,-42.497372,-338.58563,267.06995,214.06566)"
       spreadMethod="pad"
       id="linearGradient4385"><stop
         style="stop-opacity:1;stop-color:#41c0bf"
         offset="0"
         id="stop4387" /><stop
         style="stop-opacity:1;stop-color:#5bc1b0"
         offset="0.275862"
         id="stop4389" /><stop
         style="stop-opacity:1;stop-color:#89c97e"
         offset="0.527094"
         id="stop4391" /><stop
         style="stop-opacity:1;stop-color:#97cb70"
         offset="0.714286"
         id="stop4393" /><stop
         style="stop-opacity:1;stop-color:#9ece6b"
         offset="1"
         id="stop4395" /></linearGradient><clipPath
       clipPathUnits="userSpaceOnUse"
       id="clipPath4403"><path
         d="m 447.341,205.694 c -4.536,0 -6.804,-2.268 -6.804,-6.804 v 0 -30.617 h 10.206 v 27.215 h 20.412 l 0.034,-27.215 h 10.206 v 30.617 c 0,4.536 -2.268,6.804 -6.804,6.804 v 0 z"
         id="path4405"
         inkscape:connector-curvature="0" /></clipPath><linearGradient
       x1="0"
       y1="0"
       x2="1"
       y2="0"
       gradientUnits="userSpaceOnUse"
       gradientTransform="matrix(338.58563,-42.497372,-42.497372,-338.58563,266.68384,210.98946)"
       spreadMethod="pad"
       id="linearGradient4411"><stop
         style="stop-opacity:1;stop-color:#41c0bf"
         offset="0"
         id="stop4413" /><stop
         style="stop-opacity:1;stop-color:#5bc1b0"
         offset="0.275862"
         id="stop4415" /><stop
         style="stop-opacity:1;stop-color:#89c97e"
         offset="0.527094"
         id="stop4417" /><stop
         style="stop-opacity:1;stop-color:#97cb70"
         offset="0.714286"
         id="stop4419" /><stop
         style="stop-opacity:1;stop-color:#9ece6b"
         offset="1"
         id="stop4421" /></linearGradient><clipPath
       clipPathUnits="userSpaceOnUse"
       id="clipPath4429"><path
         d="m 488.164,219.302 v -10.206 h 6.805 l 3.401,10.206 z m 0,-51.029 h 10.206 v 37.421 h -10.206 z"
         id="path4431"
         inkscape:connector-curvature="0" /></clipPath><linearGradient
       x1="0"
       y1="0"
       x2="1"
       y2="0"
       gradientUnits="userSpaceOnUse"
       gradientTransform="matrix(338.58563,-42.497372,-42.497372,-338.58563,268.07242,222.05264)"
       spreadMethod="pad"
       id="linearGradient4437"><stop
         style="stop-opacity:1;stop-color:#41c0bf"
         offset="0"
         id="stop4439" /><stop
         style="stop-opacity:1;stop-color:#5bc1b0"
         offset="0.275862"
         id="stop4441" /><stop
         style="stop-opacity:1;stop-color:#89c97e"
         offset="0.527094"
         id="stop4443" /><stop
         style="stop-opacity:1;stop-color:#97cb70"
         offset="0.714286"
         id="stop4445" /><stop
         style="stop-opacity:1;stop-color:#9ece6b"
         offset="1"
         id="stop4447" /></linearGradient><clipPath
       clipPathUnits="userSpaceOnUse"
       id="clipPath4455"><path
         d="m 505.174,212.498 v -37.421 c 0,-4.537 2.268,-6.804 6.804,-6.804 v 0 h 10.206 v 10.206 h -6.804 v 17.043 h 3.402 l 3.402,10.172 h -6.804 v 6.804 z"
         id="path4457"
         inkscape:connector-curvature="0" /></clipPath><linearGradient
       x1="0"
       y1="0"
       x2="1"
       y2="0"
       gradientUnits="userSpaceOnUse"
       gradientTransform="matrix(338.58563,-42.497372,-42.497372,-338.58563,267.96274,221.1788)"
       spreadMethod="pad"
       id="linearGradient4463"><stop
         style="stop-opacity:1;stop-color:#41c0bf"
         offset="0"
         id="stop4465" /><stop
         style="stop-opacity:1;stop-color:#5bc1b0"
         offset="0.275862"
         id="stop4467" /><stop
         style="stop-opacity:1;stop-color:#89c97e"
         offset="0.527094"
         id="stop4469" /><stop
         style="stop-opacity:1;stop-color:#97cb70"
         offset="0.714286"
         id="stop4471" /><stop
         style="stop-opacity:1;stop-color:#9ece6b"
         offset="1"
         id="stop4473" /></linearGradient><clipPath
       clipPathUnits="userSpaceOnUse"
       id="clipPath4481"><path
         d="m 559.605,205.694 v -27.215 h -20.411 v 27.215 h -10.206 v -30.617 c 0,-4.537 2.268,-6.804 6.804,-6.804 v 0 h 23.813 v -3.402 h -13.607 l -3.402,-10.206 h 20.411 c 4.536,0 6.804,2.269 6.804,6.804 v 0 l 0.034,44.225 z"
         id="path4483"
         inkscape:connector-curvature="0" /></clipPath><linearGradient
       x1="0"
       y1="0"
       x2="1"
       y2="0"
       gradientUnits="userSpaceOnUse"
       gradientTransform="matrix(338.58563,-42.497372,-42.497372,-338.58563,267.36731,216.43492)"
       spreadMethod="pad"
       id="linearGradient4489"><stop
         style="stop-opacity:1;stop-color:#41c0bf"
         offset="0"
         id="stop4491" /><stop
         style="stop-opacity:1;stop-color:#5bc1b0"
         offset="0.275862"
         id="stop4493" /><stop
         style="stop-opacity:1;stop-color:#89c97e"
         offset="0.527094"
         id="stop4495" /><stop
         style="stop-opacity:1;stop-color:#97cb70"
         offset="0.714286"
         id="stop4497" /><stop
         style="stop-opacity:1;stop-color:#9ece6b"
         offset="1"
         id="stop4499" /></linearGradient></defs><sodipodi:namedview
     pagecolor="#ffffff"
     bordercolor="#666666"
     borderopacity="1"
     objecttolerance="10"
     gridtolerance="10"
     guidetolerance="10"
     inkscape:pageopacity="0"
     inkscape:pageshadow="2"
     inkscape:window-width="1920"
     inkscape:window-height="1035"
     id="namedview4157"
     showgrid="false"
     inkscape:zoom="2.5428499"
     inkscape:cx="161.79194"
     inkscape:cy="104.57905"
     inkscape:window-x="0"
     inkscape:window-y="1"
     inkscape:window-maximized="1"
     inkscape:current-layer="g4163"
     fit-margin-top="0"
     fit-margin-left="0"
     fit-margin-right="0"
     fit-margin-bottom="0" /><g
     id="g4163"
     inkscape:groupmode="layer"
     inkscape:label="T-infinity-logo"
     transform="matrix(1.25,0,0,-1.25,-420.8491,401.6425)"><g
       id="g4165"><g
         id="g4167"
         clip-path="url(#clipPath4169)"><g
           id="g4173"><g
             id="g4175"><path
               d="m 434.419,310.033 c 2.23,-2.256 4.449,-4.498 6.666,-6.74 v 0 c 11.493,11.815 28.356,10.234 37.808,0.775 v 0 c 9.722,-9.728 10.281,-25.03 1.591,-35.461 v 0 c -8.203,-9.846 -26.748,-14.138 -39.573,-0.8 v 0 c -2.189,-2.214 -4.379,-4.428 -6.574,-6.649 v 0 c 11.355,-13.101 34.279,-16.356 50.092,-2.267 v 0 c 15.561,13.865 15.9,38.249 0.8,52.523 v 0 c -7.2,6.806 -16.122,9.9 -24.808,9.9 v 0 c -9.964,0 -19.618,-4.071 -26.002,-11.281"
               style="fill:url(#linearGradient4177);stroke:none"
               id="path4189"
               inkscape:connector-curvature="0" /></g></g></g></g><g
       id="g4191"><g
         id="g4193"
         clip-path="url(#clipPath4195)"><g
           id="g4199"><g
             id="g4201"><path
               d="m 416.345,292.026 -6.462,-6.74 0.003,-0.004 c -0.003,-0.003 -0.003,-0.003 -0.006,-0.003 v 0 c -3.676,-3.573 -7.214,-7.014 -10.556,-10.254 v 0 c 2.232,-2.315 4.394,-4.564 6.812,-7.07 v 0 c 3.424,3.511 6.842,7.025 10.559,10.841 v 0 c 3.48,-3.638 6.892,-7.2 10.148,-10.608 v 0 l 4.622,-4.724 7.025,7.025 -4.866,4.864 c -3.359,3.327 -6.763,6.69 -10.34,10.231 v 0 c 3.577,3.521 7.087,6.984 10.365,10.217 v 0 c -2.329,2.379 -4.505,4.611 -6.881,7.038 v 0 c -3.346,-3.473 -6.743,-6.994 -10.423,-10.813"
               style="fill:url(#linearGradient4203);stroke:none"
               id="path4215"
               inkscape:connector-curvature="0" /></g></g></g><rect
         style="opacity:1;fill:#ffffff;fill-opacity:1;stroke:none;stroke-width:1.60000002;stroke-miterlimit:4;stroke-dasharray:none;stroke-opacity:1"
         id="rect4534"
         width="28.195724"
         height="6.1698656"
         x="469.0401"
         y="105.51474"
         transform="matrix(0.72119028,0.69273702,0.81001027,-0.5864157,0,0)" /></g><g
       id="g4217"><g
         id="g4219"
         clip-path="url(#clipPath4221)"><g
           id="g4225"><g
             id="g4227"><path
               d="m 347.168,310.794 c -14.631,-14.763 -13.872,-38.371 1.756,-52.146 v 0 c 15.36,-13.538 38.06,-10.869 49.85,2.52 v 0 c -2.19,2.239 -4.376,4.471 -6.562,6.703 v 0 c -13.267,-13.735 -31.607,-8.586 -39.155,0.206 v 0 c -8.808,10.261 -8.86,25.306 0.115,34.981 v 0 c 4.844,5.223 10.844,8.132 17.93,8.529 v 0 c 6.475,0.363 12.158,-1.406 17.147,-5.134 v 0 l -0.01,-0.01 4.032,-3.573 c 3.36,-3.326 7.597,-7.981 11.174,-11.523 v 0 l 6.589,6.789 c -3.48,3.637 -7.673,8.053 -10.93,11.46 v 0 10e-4 c -1.236,1.362 -2.556,2.603 -3.945,3.726 v 0 l -0.022,0.021 -10e-4,-0.002 c -6.52,5.266 -14.562,7.9 -22.598,7.9 v 0 c -9.237,10e-4 -18.466,-3.48 -25.37,-10.448"
               style="fill:url(#linearGradient4229);stroke:none"
               id="path4241"
               inkscape:connector-curvature="0" /></g></g></g></g></g></svg>